<mxfile host="app.diagrams.net" modified="2024-05-17T13:12:39.431Z" agent="Mozilla/5.0 (Windows NT 10.0; Win64; x64) AppleWebKit/537.36 (KHTML, like Gecko) Chrome/124.0.0.0 Safari/537.36" etag="lYm8M7FtXrOYcQDoli29" version="24.4.3" type="device">
  <diagram name="Страница — 1" id="fiNg3RvvNLiUf0lD20wO">
    <mxGraphModel dx="1545" dy="892" grid="1" gridSize="10" guides="1" tooltips="1" connect="1" arrows="1" fold="1" page="1" pageScale="1" pageWidth="827" pageHeight="1169" math="0" shadow="0">
      <root>
        <mxCell id="0" />
        <mxCell id="1" parent="0" />
        <mxCell id="wgzwaul1k7MDC1Xc16Q9-3" style="edgeStyle=orthogonalEdgeStyle;rounded=0;orthogonalLoop=1;jettySize=auto;html=1;exitX=0.5;exitY=1;exitDx=0;exitDy=0;" edge="1" parent="1" source="wgzwaul1k7MDC1Xc16Q9-1" target="wgzwaul1k7MDC1Xc16Q9-2">
          <mxGeometry relative="1" as="geometry" />
        </mxCell>
        <mxCell id="wgzwaul1k7MDC1Xc16Q9-1" value="Начало" style="rounded=1;whiteSpace=wrap;html=1;arcSize=50;" vertex="1" parent="1">
          <mxGeometry x="340" y="80" width="80" height="40" as="geometry" />
        </mxCell>
        <mxCell id="wgzwaul1k7MDC1Xc16Q9-6" style="edgeStyle=orthogonalEdgeStyle;rounded=0;orthogonalLoop=1;jettySize=auto;html=1;exitX=0.5;exitY=1;exitDx=0;exitDy=0;entryX=0.5;entryY=0;entryDx=0;entryDy=0;" edge="1" parent="1" source="wgzwaul1k7MDC1Xc16Q9-2" target="wgzwaul1k7MDC1Xc16Q9-4">
          <mxGeometry relative="1" as="geometry" />
        </mxCell>
        <mxCell id="wgzwaul1k7MDC1Xc16Q9-2" value="Ввод S" style="shape=parallelogram;perimeter=parallelogramPerimeter;whiteSpace=wrap;html=1;fixedSize=1;" vertex="1" parent="1">
          <mxGeometry x="330" y="160" width="100" height="40" as="geometry" />
        </mxCell>
        <mxCell id="wgzwaul1k7MDC1Xc16Q9-15" style="edgeStyle=orthogonalEdgeStyle;rounded=0;orthogonalLoop=1;jettySize=auto;html=1;exitX=0.5;exitY=1;exitDx=0;exitDy=0;entryX=0.5;entryY=0;entryDx=0;entryDy=0;" edge="1" parent="1" source="wgzwaul1k7MDC1Xc16Q9-4" target="wgzwaul1k7MDC1Xc16Q9-7">
          <mxGeometry relative="1" as="geometry" />
        </mxCell>
        <mxCell id="wgzwaul1k7MDC1Xc16Q9-4" value="i = индекс первой открывающей скобки" style="rounded=0;whiteSpace=wrap;html=1;" vertex="1" parent="1">
          <mxGeometry x="255" y="230" width="250" height="40" as="geometry" />
        </mxCell>
        <mxCell id="wgzwaul1k7MDC1Xc16Q9-17" style="edgeStyle=orthogonalEdgeStyle;rounded=0;orthogonalLoop=1;jettySize=auto;html=1;exitX=1;exitY=0.5;exitDx=0;exitDy=0;entryX=0;entryY=0.5;entryDx=0;entryDy=0;" edge="1" parent="1" source="wgzwaul1k7MDC1Xc16Q9-7" target="wgzwaul1k7MDC1Xc16Q9-8">
          <mxGeometry relative="1" as="geometry" />
        </mxCell>
        <mxCell id="wgzwaul1k7MDC1Xc16Q9-7" value="i &amp;lt; 0" style="rhombus;whiteSpace=wrap;html=1;" vertex="1" parent="1">
          <mxGeometry x="310" y="290" width="80" height="80" as="geometry" />
        </mxCell>
        <mxCell id="wgzwaul1k7MDC1Xc16Q9-8" value="Вывод &quot;в строке нет открывающихся скобок&quot;" style="shape=parallelogram;perimeter=parallelogramPerimeter;whiteSpace=wrap;html=1;fixedSize=1;" vertex="1" parent="1">
          <mxGeometry x="420" y="305" width="190" height="50" as="geometry" />
        </mxCell>
        <mxCell id="wgzwaul1k7MDC1Xc16Q9-9" value="Конец" style="rounded=1;whiteSpace=wrap;html=1;arcSize=50;" vertex="1" parent="1">
          <mxGeometry x="340" y="590" width="80" height="40" as="geometry" />
        </mxCell>
        <mxCell id="wgzwaul1k7MDC1Xc16Q9-13" style="edgeStyle=orthogonalEdgeStyle;rounded=0;orthogonalLoop=1;jettySize=auto;html=1;exitX=0.5;exitY=1;exitDx=0;exitDy=0;entryX=0.5;entryY=0;entryDx=0;entryDy=0;" edge="1" parent="1" source="wgzwaul1k7MDC1Xc16Q9-10" target="wgzwaul1k7MDC1Xc16Q9-11">
          <mxGeometry relative="1" as="geometry" />
        </mxCell>
        <mxCell id="wgzwaul1k7MDC1Xc16Q9-10" value="S = S.substring(i + 1)&lt;br&gt;&lt;br&gt;&lt;font style=&quot;font-size: 11px;&quot;&gt;&lt;i&gt;строка обрезается от i + 1 до конца&lt;/i&gt;&lt;/font&gt;" style="rounded=0;whiteSpace=wrap;html=1;" vertex="1" parent="1">
          <mxGeometry x="262" y="401" width="228" height="60" as="geometry" />
        </mxCell>
        <mxCell id="wgzwaul1k7MDC1Xc16Q9-14" style="edgeStyle=orthogonalEdgeStyle;rounded=0;orthogonalLoop=1;jettySize=auto;html=1;exitX=0.5;exitY=1;exitDx=0;exitDy=0;" edge="1" parent="1" source="wgzwaul1k7MDC1Xc16Q9-11" target="wgzwaul1k7MDC1Xc16Q9-9">
          <mxGeometry relative="1" as="geometry" />
        </mxCell>
        <mxCell id="wgzwaul1k7MDC1Xc16Q9-11" value="Вывод S" style="shape=parallelogram;perimeter=parallelogramPerimeter;whiteSpace=wrap;html=1;fixedSize=1;" vertex="1" parent="1">
          <mxGeometry x="327" y="500" width="106" height="40" as="geometry" />
        </mxCell>
        <mxCell id="wgzwaul1k7MDC1Xc16Q9-16" style="edgeStyle=orthogonalEdgeStyle;rounded=0;orthogonalLoop=1;jettySize=auto;html=1;exitX=0.5;exitY=1;exitDx=0;exitDy=0;entryX=0.383;entryY=0;entryDx=0;entryDy=0;entryPerimeter=0;" edge="1" parent="1" source="wgzwaul1k7MDC1Xc16Q9-7" target="wgzwaul1k7MDC1Xc16Q9-10">
          <mxGeometry relative="1" as="geometry" />
        </mxCell>
        <mxCell id="wgzwaul1k7MDC1Xc16Q9-18" value="" style="endArrow=classic;html=1;rounded=0;exitX=1;exitY=0.5;exitDx=0;exitDy=0;" edge="1" parent="1" source="wgzwaul1k7MDC1Xc16Q9-8">
          <mxGeometry width="50" height="50" relative="1" as="geometry">
            <mxPoint x="540" y="580" as="sourcePoint" />
            <mxPoint x="380" y="560" as="targetPoint" />
            <Array as="points">
              <mxPoint x="630" y="330" />
              <mxPoint x="630" y="560" />
            </Array>
          </mxGeometry>
        </mxCell>
        <mxCell id="wgzwaul1k7MDC1Xc16Q9-19" value="+" style="text;html=1;align=center;verticalAlign=middle;resizable=0;points=[];autosize=1;strokeColor=none;fillColor=none;" vertex="1" parent="1">
          <mxGeometry x="375" y="298" width="30" height="30" as="geometry" />
        </mxCell>
        <mxCell id="wgzwaul1k7MDC1Xc16Q9-20" value="-" style="text;html=1;align=center;verticalAlign=middle;resizable=0;points=[];autosize=1;strokeColor=none;fillColor=none;" vertex="1" parent="1">
          <mxGeometry x="320" y="358" width="30" height="30" as="geometry" />
        </mxCell>
      </root>
    </mxGraphModel>
  </diagram>
</mxfile>
